<?xml version="1.0" encoding="UTF-8"?>
<svg width="221px" height="154px" viewBox="0 0 221 154" version="1.1" xmlns="http://www.w3.org/2000/svg" xmlns:xlink="http://www.w3.org/1999/xlink">
    <!-- Generator: Sketch 55.2 (78181) - https://sketchapp.com -->
    <title>编组</title>
    <desc>Created with Sketch.</desc>
    <g id="修改样式" stroke="none" stroke-width="1" fill="none" fill-rule="evenodd">
        <g id="Dashboard-overview备份" transform="translate(-264.000000, -1295.000000)">
            <g id="编组-24备份" transform="translate(99.000000, 1224.000000)">
                <g id="编组" transform="translate(165.000000, 71.000000)">
                    <path d="M217.260078,119.887322 C211.784318,131.808262 200.665868,139.779479 189.143486,145.036351 C173.631239,152.115836 156.548601,154.923705 139.700903,153.736179 C136.748348,153.528833 133.804724,153.197515 130.87003,152.742223 C120.677731,151.172991 110.740958,148.119249 101.343796,143.668303 C98.6316774,142.379278 95.9745156,140.972081 93.3723105,139.446711 C89.0259645,136.904322 84.8615093,134.030072 80.9122273,130.846931 C79.9188829,130.046546 78.9392778,129.225863 77.9734118,128.384879 C77.3036256,127.801991 76.6400221,127.206053 75.9661142,126.627514 C74.5441067,125.407363 73.0808816,124.248111 71.4486643,123.380303 C70.9561763,123.118284 70.4512851,122.88308 69.935978,122.675617 C64.7672899,120.600708 58.8072236,121.383692 53.4262648,123.00186 C49.3333562,124.232886 45.3434916,125.918478 41.2547048,127.121229 C39.4359883,127.672498 37.5828147,128.088214 35.7088755,128.365305 C31.5250311,128.924245 27.2762685,128.530435 23.2487923,127.210402 L22.9046253,127.097305 C22.3275788,126.905908 21.755341,126.696388 21.1879119,126.468742 L20.8437449,126.329545 C20.2941767,126.106249 19.7562869,125.866279 19.2300755,125.609634 L18.8859084,125.444337 C18.3363403,125.174643 17.7984505,124.889723 17.272239,124.589579 C17.082638,124.485181 16.8950979,124.372083 16.7096187,124.265511 C13.7157099,122.500829 10.9942936,120.264644 8.63921084,117.634066 C8.57120179,117.562293 8.50731449,117.488344 8.4331228,117.416571 C8.10544281,117.042478 7.78394546,116.661861 7.47275251,116.272543 C7.3573432,116.128996 7.2419339,115.985449 7.12858547,115.837552 C6.75900091,115.361961 6.4024686,114.875496 6.05898852,114.378156 C6.00746651,114.306382 5.95800538,114.232434 5.90854425,114.16066 C4.50128575,112.106066 3.33460306,109.879424 2.43389981,107.529216 C2.40504748,107.457442 2.37825604,107.383494 2.35352547,107.31172 C2.07874141,106.564985 1.82800096,105.805925 1.60130411,105.03454 C1.50856449,104.712646 1.41994663,104.382053 1.34163317,104.060159 C1.31484173,103.964461 1.29011116,103.866588 1.26744148,103.77089 C0.129835468,99.0447083 0,94.1314803 0,89.2465267 C0,88.676688 0,88.1075742 0,87.5391854 C0.0329740872,79.6375664 0.148383392,71.6011 1.25301531,63.8082288 C1.25301531,63.7538549 1.26744148,63.699481 1.275685,63.647282 C1.64539891,61.0238051 2.14829031,58.4231647 2.78218861,55.8565858 C3.44562519,53.1635451 4.29350312,50.5249072 5.31913244,47.9614916 C7.86019803,41.6541161 11.5553567,35.9144044 15.6585697,30.5944594 C25.9938851,17.2075986 39.5482958,5.96959542 55.4129535,1.76322844 C72.5079568,-2.76720714 91.5072137,1.57400718 105.296565,13.1600035 C109.500761,16.6921338 113.278355,20.8745762 117.999832,23.5823978 C122.121593,25.9400513 126.946114,26.916607 131.36052,25.0613686 C135.008278,23.5280239 137.382412,22.7667889 141.479443,22.9995093 C149.961227,23.5058987 158.322796,25.3542151 166.2842,28.4825761 C166.605697,28.6065486 166.927195,28.7348711 167.246631,28.8631936 C188.001758,37.2433032 205.8428,53.8925995 215.116762,75.2876523 C215.362694,75.8531411 215.601069,76.4229798 215.831888,76.9971685 C221.36123,90.6276245 223.360284,106.602684 217.260078,119.887322 Z" id="路径" fill="#B8D2FF" opacity="0.383486793"></path>
                    <path d="M7,35 L203.881569,35 L204,36.580303 L204,127.51 C204,134.408037 198.408037,140 191.51,140 L19.6084306,140 C12.7103941,140 7.11843063,134.408037 7.11843063,127.51 L7.11843063,36.580303 L7,35 Z" id="矩形" fill="#FFFFFF"></path>
                    <path d="M203.008117,23 L8.00020055,23 C7.44780504,23 7,24.0279286 7,25.2959427 L7,35 L204,35 L204,25.2959427 C204,24.0353476 203.557262,23.0104831 203.008117,23 Z" id="路径" fill="#EAF3FC"></path>
                    <g id="6c975d28-8d47-4ade-9154-b3b78f637b65" transform="translate(11.000000, 28.000000)" fill="#FFFFFF">
                        <ellipse id="椭圆形" cx="1.60897959" cy="1.46142857" rx="1.59183673" ry="1.39285714"></ellipse>
                        <ellipse id="椭圆形" cx="5.89469388" cy="1.46142857" rx="1.59183673" ry="1.39285714"></ellipse>
                        <ellipse id="椭圆形" cx="10.1804082" cy="1.46142857" rx="1.59183673" ry="1.39285714"></ellipse>
                    </g>
                    <rect id="矩形" fill="#C5D6F6" opacity="0.501018415" x="20" y="71" width="17" height="4"></rect>
                    <rect id="矩形备份" fill="#C5D6F6" opacity="0.501018415" x="20" y="78" width="35" height="6"></rect>
                    <rect id="矩形" fill="#C5D6F6" opacity="0.501018415" x="20" y="64" width="17" height="4"></rect>
                    <path d="M107,102.432215 C114.459746,86.7096261 125.98421,73.0833825 131.892977,89.3300576 C137.801744,105.576733 139.525805,120.251149 145.122269,115.010286 C150.718734,109.769423 152.957281,123 157.674036,123 C162.390792,123 165.134093,100.33587 173.08301,100.33587 C181.031927,100.33587 181.603477,113.962113 186,116.058459" id="路径-7" stroke="#C5D6F6" stroke-width="3" opacity="0.411760603" stroke-linecap="round" fill-rule="nonzero"></path>
                    <path d="M123.252231,67.1527018 L119.79694,67.1527018 L119.79694,59.9688975 C119.79694,51.8625529 113.758468,45.1236421 106.184877,45.0008187 C102.496249,44.9593384 98.944743,46.4955209 96.3186907,49.268378 C93.6926385,52.0412352 92.2093095,55.8213517 92.19796,59.7696506 L92.19796,67.1527018 L88.7503188,67.1527018 C85.5785736,67.1631914 83.0098002,69.9126618 83,73.307519 L83,102.845183 C83.0098002,106.24004 85.5785736,108.98951 88.7503188,109 L123.252231,109 C126.42356,108.989503 128.991599,106.239598 129,102.845183 L129,73.307519 C128.991599,69.9131033 126.42356,67.163199 123.252231,67.1527018 L123.252231,67.1527018 Z M107.472306,86.4472163 L107.472306,97.154492 C107.479087,98.3309922 106.659297,99.3118259 105.59749,99.3976054 C105.057676,99.4255401 104.531038,99.2080985 104.140047,98.7958477 C103.749056,98.3835968 103.527786,97.8124631 103.527694,97.215266 L103.527694,86.4416914 C101.644571,85.4268177 100.644488,83.1099411 101.115745,80.8539701 C101.587002,78.597999 103.404877,77 105.5,77 C107.595123,77 109.412998,78.597999 109.884255,80.8539701 C110.355512,83.1099411 109.355429,85.4268177 107.472306,86.4416914 L107.472306,86.4472163 Z M116,67.4 L96,67.4 L96,59.8976038 C96,54.0262993 100.475401,49.2666667 105.996088,49.2666667 C111.516775,49.2666667 115.992176,54.0262993 115.992176,59.8976038 L116,67.4 Z" id="形状" fill="#106EBD" fill-rule="nonzero"></path>
                </g>
            </g>
        </g>
    </g>
</svg>